<svg width="124" height="52" viewBox="0 0 124 52" fill="none" xmlns="http://www.w3.org/2000/svg">
<path d="M6.58176 43.1034V13.921C6.58176 10.3826 7.61185 9.54763 9.72626 9.54763V9.05608H0V9.54763C2.11079 9.54763 2.70354 10.6283 2.70354 13.6246V38.0433C2.70354 41.383 2.50837 43.1034 0.393967 43.1034V43.6456H23.1898V32.9832H22.6982C22.2573 43.1034 16.261 43.154 8.3528 43.1034H6.58176Z" fill="white"/>
<path d="M40.6799 9.59824C45.8882 9.59824 46.0834 12.4464 46.0834 19.4257V32.1483C46.0834 38.5348 42.4979 42.2685 36.8487 42.2685C31.1994 42.2685 27.5128 38.73 27.5128 32.441V13.921C27.5128 9.89101 28.9874 9.59824 31.0982 9.59824V9.05608H20.537V9.59824C22.6984 9.59824 23.7791 10.3356 23.7791 13.8234V32.0001C23.7791 40.0095 28.5935 44.0865 34.7849 44.0865C41.7136 44.0865 46.6725 40.1071 46.6255 32.1483V19.4257C46.6255 12.45 46.4304 9.59824 52.3724 9.59824V9.05608H40.6799V9.59824Z" fill="white"/>
<path d="M80.8066 43.645H87.1065V43.1029C85.0427 43.1029 82.4945 41.9499 82.4945 38.6102V13.0639C82.4945 10.017 84.9957 9.54709 87.1065 9.54709V9.05554H76.9862V9.54709C79.1476 9.54709 81.7572 10.035 81.7572 13.082V38.6283C81.7572 40.1716 80.6295 41.2776 79.7187 41.9896C77.8862 39.0548 76.079 35.4079 73.9068 31.0164C72.19 27.5503 70.2455 23.6178 67.8925 19.2444C60.7469 5.9761 51.8339 0.825642 45.8557 0.142527C39.3318 -0.605646 34.568 1.83044 34.3693 1.93164L34.8174 2.46656C34.8608 2.44488 39.274 0.207572 45.1654 0.919602C50.5002 1.55935 55.2964 4.29181 59.4999 9.05554H53.2543V9.5977C55.3181 9.5977 57.8662 10.7507 57.8662 14.0904V39.6367C57.8662 42.6836 55.3651 43.1535 53.2543 43.1535V43.645H63.3745V43.1535C61.2131 43.1535 58.6036 42.6655 58.6036 39.6186V14.0723C58.6036 12.4458 59.8505 11.3073 60.783 10.5989C62.3228 12.5543 63.7757 14.7988 65.1384 17.3324C67.4768 21.6733 69.9635 26.9756 71.6731 30.4273C78.6452 44.5197 82.3283 51.9617 95.8677 51.9617C97.9279 51.9617 100.216 51.7882 102.778 51.4412V50.8448C90.7208 52.4785 85.4366 50.2485 80.8102 43.6414L80.8066 43.645Z" fill="white"/>
<path d="M110.585 9.05928V9.55083C116.874 9.55083 116.874 14.3146 116.874 21.1457V37.9489L94.9133 9.0629H88.0207V9.55445C89.2966 9.65204 90.0014 9.45687 93.1423 13.3857L95.2061 16.0892V31.4647C95.2061 37.4429 95.3795 42.9367 89.3436 43.1608V43.6488H102.081V43.1066C95.7446 43.1066 95.7446 37.9959 95.7446 31.4647V16.7254L116.379 43.6488H117.409V21.1493C117.409 14.3218 116.538 9.55445 123.467 9.55445V9.0629H110.582L110.585 9.05928Z" fill="white"/>
</svg>
